<?xml version="1.0" encoding="utf-8"?>
<!-- Generator: Adobe Illustrator 16.0.0, SVG Export Plug-In . SVG Version: 6.00 Build 0)  -->
<!DOCTYPE svg PUBLIC "-//W3C//DTD SVG 1.1//EN" "http://www.w3.org/Graphics/SVG/1.1/DTD/svg11.dtd">
<svg version="1.1" id="aragon" xmlns="http://www.w3.org/2000/svg" xmlns:xlink="http://www.w3.org/1999/xlink" x="0px" y="0px"
	 width="650px" height="500px" viewBox="0 0 650 500" enable-background="new 0 0 650 500" xml:space="preserve">
<polygon id="huesca" fill="none" stroke="#000000" stroke-width="1.0183" stroke-miterlimit="10" points="328.995,5.926 
	320.54,9.55 311.479,25.858 315.708,34.917 315.746,48.736 311.479,56.059 311.479,70.555 313.895,85.05 320.237,95.923 
	314.5,111.628 324.164,114.647 329.226,106.593 330.203,146.66 323.561,143.64 316.916,156.323 328.995,164.78 339.264,164.176 
	349.533,173.839 359.195,180.182 358.594,198.001 373.693,205.853 377.92,215.517 390.002,223.972 400.268,222.16 400.268,233.033 
	417.182,260.213 417.182,255.381 426.844,260.213 445.569,251.153 457.647,252.965 457.647,246.32 457.647,240.885 468.522,237.261 
	468.522,220.952 460.669,222.764 457.045,210.684 464.294,196.189 475.164,191.959 481.208,184.712 487.849,178.672 
	487.849,163.572 495.702,156.323 495.702,146.66 502.348,136.392 502.348,118.875 509.594,105.586 504.763,96.527 505.365,85.654 
	501.741,78.407 509.594,74.784 505.365,67.535 512.615,57.871 502.348,54.246 498.724,42.771 482.415,41.563 467.918,43.979 
	461.274,38.543 456.439,41.563 455.232,48.811 445.569,39.146 433.49,40.355 428.053,39.146 423.824,42.771 415.368,45.187 
	406.912,39.75 397.852,25.858 389.396,27.066 381.544,21.027 370.673,24.047 361.611,25.858 356.779,22.235 348.324,29.482 
	343.493,21.027 336.243,11.966 328.995,13.778 "/>
<polygon id="zaragoza" fill="none" stroke="#000000" stroke-width="1.0183" stroke-miterlimit="10" points="315.708,34.917 
	305.44,37.938 300.608,42.771 293.962,42.771 293.962,51.83 281.278,51.83 275.238,60.287 272.22,68.743 263.762,68.743 
	263.762,80.822 254.704,92.3 257.723,100.755 248.661,112.231 248.661,123.707 251.683,129.144 248.661,135.788 259.536,148.471 
	253.496,160.552 248.661,167.196 235.98,171.424 222.69,164.78 209.403,164.78 203.364,156.928 195.51,157.532 195.51,175.651 
	200.342,179.277 195.51,188.336 199.739,198.605 205.78,201.625 200.342,211.288 192.49,211.288 187.055,221.556 177.994,221.556 
	177.994,232.429 177.994,240.885 183.432,249.945 177.994,256.589 167.726,245.717 162.289,245.112 162.289,256.589 
	156.249,262.628 156.249,272.896 160.478,286.186 169.539,291.621 182.224,288.603 186.45,297.661 192.49,297.661 197.321,303.098 
	202.758,303.098 218.464,323.03 224.502,327.862 246.246,321.82 246.852,312.76 254.704,302.494 266.179,305.512 271.615,290.41 
	281.278,293.434 288.528,288.603 294.568,291.621 302.418,291.621 303.629,303.098 311.479,298.869 319.332,297.661 
	327.787,290.413 337.451,293.434 344.701,287.394 344.701,270.481 356.113,277.284 350.135,261.419 359.498,261.421 
	371.881,276.519 382.148,276.519 391.21,284.374 418.39,296.453 421.408,309.138 431.676,306.117 443.046,305.034 441.341,297.057 
	454.024,291.621 454.024,283.167 463.086,275.312 463.086,262.024 457.647,252.965 445.569,251.153 426.844,260.213 
	417.182,255.381 417.313,261.419 400.268,233.033 400.268,222.16 390.002,223.972 377.92,215.517 372.597,205.282 358.594,198.001 
	359.195,180.182 349.533,173.839 339.264,164.176 328.995,164.78 316.916,156.323 323.561,143.64 330.203,146.66 329.226,106.593 
	324.164,114.647 314.5,111.628 320.237,95.923 313.895,85.05 313.895,85.05 311.479,70.555 311.479,56.059 315.746,48.736 "/>
<polygon id="teruel" fill="none" stroke="#000000" stroke-width="1.0183" stroke-miterlimit="10" points="199.739,411.212 
	211.213,422.084 220.879,431.75 229.335,443.829 241.414,443.829 246.246,455.305 255.912,455.305 261.952,443.225 267.991,455.305 
	278.26,458.325 286.715,464.364 278.26,474.03 283.092,480.673 298.192,480.673 302.006,479.865 311.067,495.57 314.5,496.378 
	326.58,496.378 318.124,478.258 335.035,466.783 343.493,463.156 349.533,451.077 349.533,437.185 362.218,437.185 371.275,434.771 
	371.275,426.312 382.148,417.252 377.317,411.212 376.109,402.756 386.376,399.133 380.94,388.261 382.752,379.201 370.066,379.201 
	373.693,367.12 383.356,367.12 390.002,362.289 390.002,352.02 400.268,352.02 405.1,356.248 414.16,361.081 423.824,362.289 
	426.844,366.517 434.092,361.081 439.529,355.039 450.4,349 444.361,332.691 450.4,316.986 443.046,305.034 431.676,306.117 
	421.408,309.138 418.39,296.453 391.812,284.975 382.148,276.519 371.881,276.519 359.498,261.421 350.135,261.419 356.113,277.284 
	344.701,270.481 344.701,287.394 337.451,294.036 327.787,290.413 319.332,297.661 311.479,298.869 303.629,303.098 
	302.418,291.621 294.568,291.621 288.528,288.603 281.278,293.434 271.615,290.41 266.179,305.512 254.704,302.494 246.852,312.76 
	246.246,321.82 228.127,326.652 223.295,339.94 229.938,347.793 232.354,364.703 234.772,374.367 226.313,387.657 217.255,383.429 
	212.421,403.36 "/>
</svg>
