<?xml version="1.0" encoding="utf-8"?>
<!-- Generator: Adobe Illustrator 16.0.0, SVG Export Plug-In . SVG Version: 6.00 Build 0)  -->
<!DOCTYPE svg PUBLIC "-//W3C//DTD SVG 1.1//EN" "http://www.w3.org/Graphics/SVG/1.1/DTD/svg11.dtd">
<svg version="1.1" id="asturias" xmlns="http://www.w3.org/2000/svg" xmlns:xlink="http://www.w3.org/1999/xlink" x="0px" y="0px"
	 width="650px" height="500px" viewBox="0 0 650 500" enable-background="new 0 0 650 500" xml:space="preserve">
<path id="asturias_2_" fill="none" stroke="#000000" stroke-miterlimit="10" d="M36.979,175.662l-15.71,12.283
	c0,0-6.27,8.669-10.479,8.669s-5.352,10.599-5.352,10.599l6.646,5.91l3.03,8.538l6.384,6.739h8.221l1.652,25.308l6.121,12.957
	h12.408l8.544,2.722l-4.212,10.911l-1.204,7.864l8.424,3.928l8.423-4.345l6.619-12.107l10.829,9.598l3.005,10.207l-8.42,7.813
	l-21.057,5.403l-7.818,15.032l-5.074,8.199l8.682,0.364h8.395l12.667,5.493l8.424,7.413l0.601,15.081l0.601,10.276h7.975
	l7.062,5.509l7.222-8.424l10.226-5.104l14.437-1.36l12.038,1.131l15.039-1.232l15.638-7.249l6.013-5.424l5.424-12.635l5.411-14.44
	l7.816-3.011l7.823,6.021l13.234,3.608l5.411,3.005l7.222-3.607l4.847-9.027l6.06,0.604v6.355l10.604,1.464l7.297-8.424l5.144-7.213
	l8.292,4.213l11.357,1.206l5.385,8.424l9.003,10.821l10.824,4.819l19.848,3.603l10.831-5.407l4.205-11.434l6.013-7.218l12.639-0.604
	l7.827,1.849l10.819,5.455h11.628l12.262-3.091v-8.542l7.504,1.921l8.894,4.214v-11.179l8.179-3.859l13.062,1.809l17.361,0.604
	l5.669-3.619l15.165-6.375l6.15,6.257h5.478v-9.949l5.951-22.85h10.335l10.114,1.933l13.24-11.76l5.413-7.2l6.021,6.629l6.031,3.609
	l3.032,8.797v5.706l10.068-3.069l9.994-2.476l7.259-8.36l5.477-8.425v-7.942l15.234,0.12l7.555-6.018l4.367-5.419l8.21,1.81
	l4.095,6.018l6.57,1.805l2.376-7.823l-6.556-18.043l1.885-9.623v-3.177l-18.026-1.036l-14.83-6.017l-19.453-0.602l-22.654-10.226
	l-22.763-3.614l-31.836-0.601l-12.012-9.028l-27.064-5.258l-11.413-15.518h-21.033l-9.042,4.164l-1.202-9.63h-25.062h-20.18
	l-14.316,4.793l-15.641-7.927l-13.238-7.871l-2.999-8.752l-9.361-11.288l-6.89,9.691l-11.422,2.445l-0.602,8.435l-7.823,4.82
	l-17.448,1.81L266,154.048l-12.038-2.405l-12.029-1.811l-12.638-8.423l-17.441,10.233l-24.065,2.405l-9.024-0.606l-7.823-4.809
	l-4.811,6.613l-26.466-3.008l-13.237-1.2l-7.214,6.258l-13.833-3.248l-16.848-3.614l-15.642,1.203l-19.251,0.601l-16.135,1.204
	L36.979,175.662z"/>
</svg>
