<?xml version="1.0" encoding="UTF-8" standalone="no"?>
<!-- Generator: Adobe Illustrator 16.0.0, SVG Export Plug-In . SVG Version: 6.00 Build 0)  -->

<svg
   xmlns:dc="http://purl.org/dc/elements/1.1/"
   xmlns:cc="http://creativecommons.org/ns#"
   xmlns:rdf="http://www.w3.org/1999/02/22-rdf-syntax-ns#"
   xmlns:svg="http://www.w3.org/2000/svg"
   xmlns="http://www.w3.org/2000/svg"
   xmlns:sodipodi="http://sodipodi.sourceforge.net/DTD/sodipodi-0.dtd"
   xmlns:inkscape="http://www.inkscape.org/namespaces/inkscape"
   version="1.1"
   id="espana"
   x="0px"
   y="0px"
   width="650px"
   height="500px"
   viewBox="0 0 650 500"
   enable-background="new 0 0 650 500"
   xml:space="preserve"
   inkscape:version="0.91 r"
   sodipodi:docname="baleares_ink.svg"><metadata
     id="metadata3497"><rdf:RDF><cc:Work
         rdf:about=""><dc:format>image/svg+xml</dc:format><dc:type
           rdf:resource="http://purl.org/dc/dcmitype/StillImage" /><dc:title></dc:title></cc:Work></rdf:RDF></metadata><defs
     id="defs3495" /><sodipodi:namedview
     pagecolor="#ffffff"
     bordercolor="#666666"
     borderopacity="1"
     objecttolerance="10"
     gridtolerance="10"
     guidetolerance="10"
     inkscape:pageopacity="0"
     inkscape:pageshadow="2"
     inkscape:window-width="1552"
     inkscape:window-height="924"
     id="namedview3493"
     showgrid="false"
     inkscape:zoom="1.43183"
     inkscape:cx="341.67495"
     inkscape:cy="275.87182"
     inkscape:window-x="0"
     inkscape:window-y="0"
     inkscape:window-maximized="0"
     inkscape:current-layer="espana"
     showguides="true"
     inkscape:guide-bbox="true" /><path
     id="mallorca"
     stroke-miterlimit="10"
     d="m 249.05529,187.32005 14.7576,-10.87151 23.17314,-21.32137 15.48788,0 19.10882,-28.67192 11.31923,-3.74265 16.75282,-9.57179 11.2323,-5.82915 6.7898,0 17.55698,-8.176449 12.17122,-4.864143 11.56701,0 0,6.520302 -12.50592,5.93347 -5.61181,9.28055 11.59743,0 6.5203,-6.39424 0,12.91454 0,8.69373 -11.56701,-1.95609 6.55073,10.98887 5.01628,4.92065 9.94997,4.68157 10.27165,2.79069 9.35445,-10.55418 11.68437,0 13.55787,7.76349 -4.26861,22.46025 -7.12017,6.82893 0,12.93192 -12.00605,5.50313 -7.48529,11.23229 -5.61616,11.22361 -4.67722,11.2323 -3.73395,10.28902 -16.8441,5.95087 -4.65984,10.89324 -10.29338,7.48965 -8.42423,-7.48965 -7.49398,-6.55073 -3.73831,-13.3101 -19.65218,3.52966 -14.90974,0 -8.43292,-11.73654 1.91262,-12.16686 0,-8.70243 1.75178,-8.14602 -15.89648,-9.35011 -9.34141,2.80807 -14.03602,2.80808 0.96065,11.23229 -7.51573,6.54638 -8.42421,-6.54638 -2.80809,-10.29771 -14.03602,0.93457 z"
     inkscape:connector-curvature="0"
     style="fill:none;stroke:#000000;stroke-width:1;stroke-miterlimit:10;stroke-dasharray:none"
     sodipodi:nodetypes="cccccccccccccccccccccccccccccccccccccccccccccccccccccccc" /><path
     style="fill:none;fill-rule:evenodd;stroke:#000000;stroke-width:1px;stroke-linecap:butt;stroke-linejoin:miter;stroke-opacity:1"
     d="m 38.412378,332.38234 13.96814,2.09522 -2.79363,-9.7777 9.7777,-15.36495 16.76177,0 18.85699,-13.96814 7.682472,6.28566 11.87292,-2.09522 -9.7777,29.33309 -18.158582,13.96814 -13.96814,9.7777 -0.6984,13.26973 -14.66655,0 -18.15858,-11.87292 z"
     id="path4191"
     inkscape:connector-curvature="0" /><path
     style="fill:none;fill-rule:evenodd;stroke:#000000;stroke-width:1px;stroke-linecap:butt;stroke-linejoin:miter;stroke-opacity:1"
     d="m 66.348656,390.15968 19.5554,0.88885 9.77769,6.98407 9.079294,1.39681 4.88885,9.07929 -31.428314,0.69841 -11.87292,6.98407 z"
     id="path4195"
     inkscape:connector-curvature="0"
     sodipodi:nodetypes="cccccccc" /><path
     style="fill:none;fill-rule:evenodd;stroke:#000000;stroke-width:1px;stroke-linecap:butt;stroke-linejoin:miter;stroke-opacity:1"
     d="m 521.70998,83.051061 7.68248,-9.777697 40.5076,-2.095221 7.68247,-6.285662 13.26974,6.984069 6.28566,0.698407 1.39681,11.872918 18.85699,4.888848 5.58725,27.237867 -4.19044,13.96814 -26.53946,-6.98407 -12.57132,-11.87292 -12.57133,-6.28566 -27.93628,2.09522 -9.07929,-2.79363 0.69841,-14.66654 z"
     id="path4197"
     inkscape:connector-curvature="0" /></svg>