<?xml version="1.0" encoding="UTF-8" standalone="no"?>
<!-- Generator: Adobe Illustrator 16.0.0, SVG Export Plug-In . SVG Version: 6.00 Build 0)  -->

<svg
   xmlns:dc="http://purl.org/dc/elements/1.1/"
   xmlns:cc="http://creativecommons.org/ns#"
   xmlns:rdf="http://www.w3.org/1999/02/22-rdf-syntax-ns#"
   xmlns:svg="http://www.w3.org/2000/svg"
   xmlns="http://www.w3.org/2000/svg"
   xmlns:sodipodi="http://sodipodi.sourceforge.net/DTD/sodipodi-0.dtd"
   xmlns:inkscape="http://www.inkscape.org/namespaces/inkscape"
   version="1.1"
   id="canarias"
   x="0px"
   y="0px"
   width="650px"
   height="500px"
   viewBox="0 0 650 500"
   xml:space="preserve"
   inkscape:version="0.91 r"
   sodipodi:docname="canarias_ink.svg"
   inkscape:label="elHierro"><metadata
     id="metadata3415"><rdf:RDF><cc:Work
         rdf:about=""><dc:format>image/svg+xml</dc:format><dc:type
           rdf:resource="http://purl.org/dc/dcmitype/StillImage" /><dc:title></dc:title></cc:Work></rdf:RDF></metadata><defs
     id="defs3413" /><sodipodi:namedview
     pagecolor="#ffffff"
     bordercolor="#666666"
     borderopacity="1"
     objecttolerance="10"
     gridtolerance="10"
     guidetolerance="10"
     inkscape:pageopacity="0"
     inkscape:pageshadow="2"
     inkscape:window-width="1407"
     inkscape:window-height="824"
     id="namedview3411"
     showgrid="false"
     showguides="true"
     inkscape:guide-bbox="true"
     inkscape:zoom="1.0951916"
     inkscape:cx="117.9585"
     inkscape:cy="320.64539"
     inkscape:window-x="0"
     inkscape:window-y="0"
     inkscape:window-maximized="0"
     inkscape:current-layer="canarias" /><path
     id="granCanaria"
     stroke-miterlimit="10"
     d="m 341.368,301 8.034,0 10.712,0 6.53,0.682 4.355,-2.803 0,9.373 2,11.908 0,6.837 -3.922,14.357 -7.243,5.775 -11.331,6.422 -12.725,-4.492 -11.458,-7.066 -6.32,-9.629 0,-10.723 0.642,-6.695 11.793,0 4.012,-7.847 z"
     inkscape:connector-curvature="0"
     style="fill:none;stroke:#000000;stroke-miterlimit:10"
     sodipodi:nodetypes="ccccccccccccccccccc" /><path
     style="fill:none;fill-rule:evenodd;stroke:#000000;stroke-width:1px;stroke-linecap:butt;stroke-linejoin:miter;stroke-opacity:1"
     d="m 65.741923,217.85758 10.956988,-12.78315 6.391575,2.73924 10.956988,-0.91308 9.130826,16.43548 -5.478497,8.21774 2.739247,13.69624 -6.391576,10.0439 -4.565412,8.21774 -4.565411,-2.73924 -0.913082,-9.13083 -10.043905,-11.87007 -0.913082,-8.21774 z"
     id="path3613"
     inkscape:connector-curvature="0" /><path
     style="fill:none;fill-rule:evenodd;stroke:#000000;stroke-width:1px;stroke-linecap:butt;stroke-linejoin:miter;stroke-opacity:1"
     d="m 46.567195,346.77602 13.696234,0.91308 8.217741,-9.13082 11.870069,-1.82617 0.913083,10.95699 -6.391576,3.65233 -1.826165,6.39157 -2.739247,4.56541 -6.391575,-0.91308 -9.130823,-6.39157 -10.956987,-0.91309 z"
     id="path3619"
     inkscape:connector-curvature="0" /><path
     style="fill:none;fill-rule:evenodd;stroke:#000000;stroke-width:0.9549163px;stroke-linecap:butt;stroke-linejoin:miter;stroke-opacity:1"
     d="m 146.96035,289.05217 14.83548,2.92094 7.02733,4.86825 4.68488,4.86824 -0.78081,6.81555 -7.80814,6.81555 -7.80814,3.89459 -7.80816,-5.8419 -7.80815,-9.73648 z"
     id="path3629"
     inkscape:connector-curvature="0" /><path
     style="fill:none;fill-rule:evenodd;stroke:#000000;stroke-width:0.87222469px;stroke-linecap:butt;stroke-linejoin:miter;stroke-opacity:1"
     d="m 198.04665,272.15059 9.34799,-4.8853 7.78999,4.07108 9.34799,-4.8853 14.02198,2.44265 13.24299,-8.95638 7.01099,-8.14215 10.12699,-4.8853 6.23198,-0.81422 8.569,2.44265 8.56898,-1.62843 -17.13798,15.4701 -11.68498,8.95638 -0.779,12.21324 -5.45299,7.32794 -1.558,10.58481 -11.68499,13.84168 -7.01099,0 -7.78999,4.88529 -5.45299,0 -0.779,-8.14216 -11.68499,-13.02746 -4.67399,-12.21323 z"
     id="path3631"
     inkscape:connector-curvature="0"
     sodipodi:nodetypes="cccccccccccccccccccccccc" /><path
     style="fill:none;fill-rule:evenodd;stroke:#000000;stroke-width:0.87764794px;stroke-linecap:butt;stroke-linejoin:miter;stroke-opacity:1"
     d="m 534.38604,221.10534 11.22152,-2.40358 4.80922,4.00596 0,9.61431 4.80924,7.21074 -7.21384,13.62025 3.42923,16.58329 -10.39926,16.13574 -28.29762,5.16078 -20.03845,18.20364 -20.03845,-10.28564 13.91934,-0.24176 10.88689,-5.4785 8.85836,-11.23463 4.67697,-12.46545 5.27613,-12.01789 7.68074,-9.50241 7.21384,-13.41445 z"
     id="path3633"
     inkscape:connector-curvature="0"
     sodipodi:nodetypes="ccccccccccccccccccc" /><path
     style="fill:none;fill-rule:evenodd;stroke:#000000;stroke-width:0.94572026px;stroke-linecap:butt;stroke-linejoin:miter;stroke-opacity:1"
     d="m 559.8679,178.16818 23.23629,-12.83624 8.36507,4.01133 2.78837,-13.63851 4.64725,-6.41812 6.50619,5.61586 0,7.22037 -5.57672,3.20907 0.92945,13.63851 -7.43562,10.42945 -4.64727,3.20905 -4.64725,-0.80225 -4.64727,4.81359 -8.36506,0 -9.29453,11.23171 -12.08288,-2.40678 6.50616,-12.034 -1.8589,-7.22036 z"
     id="path3695"
     inkscape:connector-curvature="0" /></svg>