<?xml version="1.0" encoding="utf-8"?>
<!-- Generator: Adobe Illustrator 16.0.0, SVG Export Plug-In . SVG Version: 6.00 Build 0)  -->
<!DOCTYPE svg PUBLIC "-//W3C//DTD SVG 1.1 Basic//EN" "http://www.w3.org/Graphics/SVG/1.1/DTD/svg11-basic.dtd">
<svg version="1.1" baseProfile="basic" xmlns="http://www.w3.org/2000/svg" xmlns:xlink="http://www.w3.org/1999/xlink" x="0px"
	 y="0px" width="650px" height="500px" viewBox="0 0 650 500" xml:space="preserve">
<g id="madrid">
</g>
<g id="cantabria">
	<path id="cantabria_1_" fill="none" stroke="#000000" stroke-miterlimit="10" d="M524.172,258.535l-31.695-10.807l-31.383-12.192
		l-15.678,19.118l-31.133,30.896l-34.958,13.498l-27.197,29.059l-17.541,21.326l13.453,15.505l28.838-15.521l9.795,13.576
		l-36.484,13.576l15.237,19.386L385,391.265v37.662l-26.66,9.693l-25.217-3.875l-10.615-9.7l-20.586,15.521l-17.868-5.82
		L259,438.497v-15.391c0,0-12.569-21.332-18.396-25.214c-5.812-3.874,3.782-32.962,3.782-32.962l-15.937-23.278l-27.362-3.875
		l-15.618-21.341l-27.202-15.512l-21.356,1.938l-11.653,15.511l-23.286-1.937l-36.845,1.952c0,0-11.644-9.691-17.463-13.574
		c-5.819-3.874-21.333-13.561-21.333-13.561l-17.458-23.24l2.767-26.193c0,0-8.486-5.682-2.767-6.839
		c5.719-1.155,35.239-4.107,35.239-4.107l13.776-9.841l3.936-21.647l18.695-7.871l22.631-6.89l5.904-7.87l17.711,5.904l-0.983,8.856
		l16.728-1.969l-2.952-18.697c0,0-2.952-14.953-3.937-17.907c-0.983-2.952-4.918-15.942-4.918-15.942h10.822h15.745l34.439-8h12.793
		l37.391,4.2c0,0,30.503-14.142,33.455-14.142c2.953,0,31.487-11.003,31.487-11.003s36.404-6.977,39.355-8.945
		c2.952-1.969,26.567-10.87,26.567-10.87l31.487-5.928l2.951,8.845l-10.823,14.431L398.342,121h10.823
		c0,0,18.695-22.305,21.648-22.305c2.951,0,27.551-19.728,30.502-18.743C464.268,80.937,480.996,74,480.996,74h22.632l6.888,12.02
		l21.647,9.45l3.937,13.582l18.694,2.858l39.36,2.902l18.696,9.814l12.123,8.843L643,140.347v22.632l-6.711,13.775l-9.258,6.888
		l-11.032-1.969l-6.985-5.904l-21.699,5.904l-22.65-1.967l-5.918,13.774l-15.755,7.873l-10.821,4.919l5.393,15.745L541,238.744
		v10.824L524.172,258.535z"/>
</g>
</svg>
