<?xml version="1.0" encoding="utf-8"?>
<!-- Generator: Adobe Illustrator 16.0.0, SVG Export Plug-In . SVG Version: 6.00 Build 0)  -->
<!DOCTYPE svg PUBLIC "-//W3C//DTD SVG 1.1//EN" "http://www.w3.org/Graphics/SVG/1.1/DTD/svg11.dtd">
<svg version="1.1" id="aragon" xmlns="http://www.w3.org/2000/svg" xmlns:xlink="http://www.w3.org/1999/xlink" x="0px" y="0px"
	 width="650px" height="500px" viewBox="0 0 650 500" enable-background="new 0 0 650 500" xml:space="preserve">
<polygon id="huesca" fill="none" stroke="#000000" stroke-miterlimit="10" points="167.967,5.926 152.098,12.728 135.09,43.338 
	143.028,60.341 143.1,86.279 135.09,100.024 135.09,127.232 139.625,154.438 151.528,174.847 140.761,204.325 158.899,209.991 
	168.402,194.874 170.235,270.079 157.768,264.41 145.295,288.216 167.967,304.089 187.241,302.955 206.517,321.092 224.652,332.998 
	223.523,366.443 251.864,381.182 259.797,399.32 282.475,415.19 301.743,411.789 301.743,432.197 333.49,483.213 333.49,474.144 
	351.625,483.213 386.772,466.207 409.442,469.608 409.442,457.136 409.442,446.935 429.854,440.133 429.854,409.521 
	415.114,412.923 408.312,390.249 421.918,363.042 442.32,355.103 453.665,341.5 466.129,330.164 466.129,301.822 480.87,288.216 
	480.87,270.079 493.344,250.806 493.344,217.927 506.944,192.984 497.876,175.98 499.007,155.572 492.205,141.971 506.944,135.17 
	499.007,121.564 512.615,103.425 493.344,96.621 486.541,75.083 455.931,72.815 428.72,77.35 416.25,67.147 407.176,72.815 
	404.91,86.42 386.772,68.279 364.101,70.548 353.895,68.279 345.958,75.083 330.086,79.618 314.214,69.413 297.208,43.338 
	281.338,45.605 266.6,34.27 246.195,39.938 229.187,43.338 220.117,36.537 204.247,50.14 195.18,34.27 181.572,17.263 
	167.967,20.664 "/>
</svg>
