<?xml version="1.0" encoding="utf-8"?>
<!-- Generator: Adobe Illustrator 19.0.0, SVG Export Plug-In . SVG Version: 6.00 Build 0)  -->
<svg version="1.1" id="laRioja_1_" xmlns="http://www.w3.org/2000/svg" xmlns:xlink="http://www.w3.org/1999/xlink" x="0px" y="0px"
	 viewBox="-4 -50 650 500" style="enable-background:new -4 -50 650 500;" xml:space="preserve">
<style type="text/css">
	.st0{fill:none;stroke:#000000;stroke-miterlimit:10;}
</style>
<path id="laRioja" class="st0" d="M544.6,380.5l-24.3,22.7l-17.6-2.1l-36-2.2L435.1,381l8.4-17.9L433.4,343l-23.5-9l28.1-14.4v-17
	l-30.3,5.6l-34.2,3.4l-4.9-26.4l-72.4,11.1l-30.2-4v30.5l-14.9,39.3l-29.3,9.9h-37.1L169,347.4l26.9-35.2l-11.2-20.5l-20.2-2.4
	l-11.2,31.3L135.4,343l-31.4,8.9l-6.7-20.2l-18-22.4l-29.2-4.5L26,280.2L9.3,255.6l3.9-20.2L24,195.1L7.3,177.1L21,155.9v-32.5
	l15.1,2.2l5.6-29.1l-16-6.7l9.1-29.1L9.6,47.2L21,19.5l3.1-23.4l35.8,1.8L98.2,9.1l33.1-4.5l11.2,9.1L139,26.3l6.8,12.5l13.6-4.5
	l7.9-18.3h31.8l2.3,10.3l-4.5,30.1L212.7,80c0,0,10.2-5.8,13.6-4.7c3.4,1.1,12.5,11.3,18.2,12.4c5.7,1.1,6.8,9.1,6.8,9.1l10.2-9.1
	l5.7-18.2l23.9,4.5l20.5,6.8l30.7,11.4l48.9,18.2l34.1,8l19.3,2.3l13.6,26.1l13.6,13.6l25,4.5l28.4,15.9l11.4,27.3l43.2,17.1
	l22.7,12.5l33,21.6L622,273l-6.8,17.1l-21.6-8l-20.5-5.7l-12.5,13.6L547,304.8l-6.8,12.5l-5.7,15.9l3.3,18.2l19.2,8v14.8
	L544.6,380.5z"/>
</svg>
