<?xml version="1.0" encoding="utf-8"?>
<!-- Generator: Adobe Illustrator 16.0.0, SVG Export Plug-In . SVG Version: 6.00 Build 0)  -->
<!DOCTYPE svg PUBLIC "-//W3C//DTD SVG 1.1 Basic//EN" "http://www.w3.org/Graphics/SVG/1.1/DTD/svg11-basic.dtd">
<svg version="1.1" baseProfile="basic" id="madrid" xmlns="http://www.w3.org/2000/svg" xmlns:xlink="http://www.w3.org/1999/xlink"
	 x="0px" y="0px" width="650px" height="500px" viewBox="0 0 650 500" xml:space="preserve">
<path id="madrid_1_" fill="none" stroke="#000000" stroke-miterlimit="10" d="M112.8,358.253l2.799-16.936l5.996-6.054l7.718-14.3
	l12.156,2.144l5.006-12.871l4.292-9.333c0,0,2.149-7.903,5.007-7.903c2.857,0,16.788,0,16.788,0L182,281.626v-12.263v-17.987
	v-11.995l11-9.244v-14.742v-5.997l17.564,5.007l9.007-2.146l5.428-5.721v-9.132v-5.996l0,0l10.173-12.048l13.219-21.455
	l6.971-11.442l17.785,4.292l10.682-11.443l3.548-23.6l3.569-17.163l10.722-12.874l12.865-8.581l12.873-5.007l12.155-10.011
	l14.955-20.023l17.228-15.019l7.87-10.728l10.728-7.149l8.572-1.432l6.441,8.581l14.3,20.74l8.584,2.147l9.299,1.429l-3.068,11.442
	L440,62.796v8.692l-3.586,14.908c0,0-8.736,16.449-8.022,19.31c0.715,2.86,1.351,10.01,1.351,10.01l-6.467,7.866l-2.714,12.874
	L415,144.321v11.113c0,0,5.894,0.328,8.036,1.759c2.145,1.432,7.246,0.715,7.246,0.715s-2.096,10.728-1.383,13.587
	c0.715,2.861,0.742,17.163,0.742,17.163l9.733,3.578l8.172-2.86l6.432,5.721l9.297,7.867l-2.853,13.585c0,0-1.148,3.578,3.139,6.439
	c4.297,2.86,12.438,8.581,12.438,8.581v13.807l11.909,1.924l7.7,7.156l3.391,12.87v20.027l13.283-3.572L518,295.223v10.118
	l-8.623,17.767l-5.165,10.013l-2.945,12.155c0,0,2.093,8.585,4.248,8.585c2.143,0,7.135-3.571,7.135-3.571l8.567-11.454l8.576,0.727
	c0,0-2.149,6.43-0.005,8.572c2.143,2.155-0.255,15.74-0.255,15.74l5.467,9.299v28.106c0,0-12.531,14.09-18.962,18.375
	c-6.44,4.286-11.358-2.856-22.8,0c-11.443,2.858-22.847,1.404-22.847,1.404s-4.992-9.274-8.563-11.417
	c-3.573-2.144-9.287-0.48-9.287,2.378c0,2.857-2.136,10.247-2.136,10.247l-69.364,29.776L368.875,468h-16.432l-24.323,15.746
	c0,0-5.01,6.929-6.438,4.071c-1.429-2.858-7.15-17.638-7.15-17.638l10.731-12.392l14.299-4.407l7.871-8.643l15.013-13.615
	c0,0,11.442-9.308,13.585-10.021c2.143-0.715,7.871-15.026,7.871-15.026s0-2.873-6.442-9.305
	c-6.429-6.439-17.988-7.869-22.942-7.155c-4.941,0.715-12.812,2.144-14.955,2.144s-5.716-5.001-8.584-7.858
	c-2.857-2.869-28.607-12.168-34.329-15.026c-5.722-2.856-20.021-5.714-20.021-5.714l-14.305-10.729c0,0-60.788-9.299-60.788-7.156
	c0,2.145-15.728,22.886-19.305,21.456c-3.578-1.429-7.15-13.585-7.15-13.585l-2.149-17.883l-6.436-8.584l-13.585,12.882
	l-10.728,14.299l-12.162,7.145l-7.864,7.869L112.8,358.253"/>
</svg>
