<?xml version="1.0" encoding="utf-8"?>
<!-- Generator: Adobe Illustrator 16.0.0, SVG Export Plug-In . SVG Version: 6.00 Build 0)  -->
<!DOCTYPE svg PUBLIC "-//W3C//DTD SVG 1.1//EN" "http://www.w3.org/Graphics/SVG/1.1/DTD/svg11.dtd">
<svg version="1.1" xmlns="http://www.w3.org/2000/svg" xmlns:xlink="http://www.w3.org/1999/xlink" x="0px" y="0px" width="650px"
	 height="500px" viewBox="0 0 650 500" enable-background="new 0 0 650 500" xml:space="preserve">
<g id="asturias">
</g>
<g id="espana">
	<polygon id="murcia_1_" fill="none" stroke="#000000" stroke-miterlimit="10" points="89.105,267.558 109.769,294.629 
		127.606,305.465 178.941,314.24 195.424,313.736 188.647,356.704 190.696,405.436 221.545,439.381 235.956,473.344 
		263.621,473.344 295.606,493.6 328.523,482.113 351.152,449.629 379.953,435.431 407.932,425.264 440.037,443.887 440.037,419.488 
		468.774,425.366 503.568,427.427 531.245,421.256 562.574,406.846 523.734,390.4 513.555,370.827 526.013,349.181 547.034,349.181 
		552.752,319.99 528.067,330.508 460.178,235.994 486.879,151.703 440.037,147.651 440.037,105.921 467.9,87.994 472.808,36.576 
		409.75,4.802 387.988,14.068 382.666,27.042 356.819,28.899 351.312,52.983 324.674,64.107 338.402,116.004 334.7,142.954 
		305.893,166.203 293.768,166.203 277.098,142.692 253.155,146.394 229.057,163.58 186.44,175.501 173.471,162.431 158.64,185.271 
		138.257,198.877 118.901,198.877 117.861,225.094 103.037,249.434 86.361,265.988 	"/>
</g>
</svg>
