<?xml version="1.0" encoding="utf-8"?>
<!-- Generator: Adobe Illustrator 16.0.0, SVG Export Plug-In . SVG Version: 6.00 Build 0)  -->
<!DOCTYPE svg PUBLIC "-//W3C//DTD SVG 1.1//EN" "http://www.w3.org/Graphics/SVG/1.1/DTD/svg11.dtd">
<svg version="1.1" id="comunidadValenciana" xmlns="http://www.w3.org/2000/svg" xmlns:xlink="http://www.w3.org/1999/xlink"
	 x="0px" y="0px" width="650px" height="500px" viewBox="0 0 650 500" enable-background="new 0 0 650 500" xml:space="preserve">
<path id="alicante" fill="none" stroke="#000000" stroke-miterlimit="10" d="M419.045,324.143l21.56,8.764h12.206l-6.861,11.464
	l-5.367,12.191l-16.853,12.05l-8.426,14.857h-14.654l-17.997,10.687l-12.594,12.047v9.983c0,0-7.839-2.973-7.839,0l-4.058,12.479
	v9.948l-17.846,5.031v16.919l-7.14,12.111l-4.346,19.646L317.753,497l-12.08-16.768l-18.676-26.315l9.379-23.402l2.789-14.979
	l-21.309-1.876v-19.005l14.872-8.147v-11.063l0.901-12.826h5.489l1.147-23.742l7.695-0.294l5.873,2.937l5.873,4.189l7.131-3.776
	l8.81,0.84l7.131,8.806l7.97,1.261l3.358-6.285l4.612-2.518l-2.516-4.616l-10.066-2.516l19.198-2.523l20.23-13.417l11.746,2.932
	C397.31,323.894,417.186,323.388,419.045,324.143z"/>
<path id="valencia_1_" fill="none" stroke="#000000" stroke-miterlimit="10" d="M397.31,323.894l-11.746-2.932l-20.23,13.417
	l-19.198,2.523l10.066,2.516l2.516,4.616l-4.612,2.518l-3.358,6.285l-7.97-1.261l-7.131-8.806l-8.388-0.416l-7.553,3.353
	l-5.873-4.189l-5.873-2.937l-7.695,0.294l2.242-14.732l-5.033-12.829l-10.067,3.776l-13.006-0.419l-8.807-14.683l-5.873-4.193
	l1.258-12.168l8.388-8.81l2.098-22.649l-5.034-2.516l-20.135-4.615l-4.615-2.937l-6.709-0.418l-1.261-7.134l-7.13-2.815
	l2.518-19.417l6.292-3.354l7.552-20.556l8.388,2.097l3.965-8.504l9.202-7.144l5.896-12.444l-1.679-12.844l9.144-3.917l16.681-6.323
	l9.646,5.034v11.327l4.615,7.97l10.489-7.97l10.066,10.906l5.453-5.453L339,168.69l2.101,8.809l8.807,0.42l3.776-7.97l7.969,11.745
	l5.034,1.259l9.231-13.004h13.422l2.097,8.808l10.111,3.515l-6.158,10.477l-13.393,26.216v16.556l4.821,12.455l8.627,21.099
	l-4.578,12.611l16.919,25.275l11.259,17.181L397.31,323.894z"/>
<path id="castellon" fill="none" stroke="#000000" stroke-miterlimit="10" d="M391.437,178.758l-2.097-9.229l-13.422,0.42
	l-8.81,12.323h-5.034l-8.391-12.323l-4.195,8.39l-8.388-0.84L339,168.69l-4.193-7.551l-5.453,5.453l-6.54-7.088l-3.526-3.817
	l-4.924-11.684l12.539-9.064l7.029-4.163l11.819-6.103l3.053-15.143l4.943-14.13l4.412,2.767l11.223-2.832l3.759-12.18l15.926-7.498
	l-12.173-13.108l6.869-6.489l6.596-7.401l-5.016-10.032l-12.536-6.27l3.811-6.707l13.045-5.077l4.812-9.803l3.407-8.504
	l10.029,16.296l15.046-1.255l5.908-2.361l6.629-2.653l6.012,0.624l13.198,5.619l7.415,12.612L472,36.503l6.132,7.136l11.735,5.065
	l-6.751,16.682l-19.027,24.373l-12.562,15.917l-5.711,3.742l-6.216,15.076l-7.468,9.269l-13.073,16.853l-9.358,17.786l-8.152,13.871
	L391.437,178.758z"/>
</svg>
